<?xml version="1.0" standalone="no"?>
<!DOCTYPE svg PUBLIC "-//W3C//DTD SVG 20010904//EN"
 "http://www.w3.org/TR/2001/REC-SVG-20010904/DTD/svg10.dtd">
<svg version="1.0" xmlns="http://www.w3.org/2000/svg"
 width="16.000000pt" height="16.000000pt" viewBox="0 0 16.000000 16.000000"
 preserveAspectRatio="xMidYMid meet">
<metadata>
Created by potrace 1.11, written by Peter Selinger 2001-2013
</metadata>
<g transform="translate(0.000000,16.000000) scale(0.001166,-0.001166)"
fill="#000000" stroke="none">
<path d="M7130 13324 c-25 -2 -112 -8 -195 -14 -549 -41 -1158 -179 -1680
-383 -1211 -472 -2239 -1338 -2911 -2452 -40 -66 -69 -124 -64 -128 9 -10
1103 -598 1105 -594 0 1 36 58 79 126 580 926 1461 1619 2493 1960 290 96 607
165 953 208 116 14 218 17 505 17 198 0 395 -5 437 -10 l78 -10 742 470 741
471 -164 53 c-405 132 -850 223 -1299 267 -144 14 -718 28 -820 19z"/>
<path d="M10590 12928 l-795 -100 -1490 -976 c-819 -537 -1613 -1057 -1764
-1156 l-275 -181 -454 -56 -455 -57 -696 -695 -696 -695 -120 58 c-66 31 -401
194 -745 360 -344 166 -674 326 -735 355 -60 29 -222 107 -359 174 -137 66
-254 121 -260 121 -14 0 -936 -921 -936 -935 0 -5 409 -419 908 -920 l908
-910 73 -520 72 -520 399 -399 398 -399 473 223 c261 122 490 229 509 237 25
10 -97 -118 -433 -454 l-467 -468 65 -65 65 -65 -112 -112 -113 -113 553 -552
552 -553 113 113 112 112 65 -65 65 -65 472 472 473 473 -131 -280 c-72 -154
-180 -385 -241 -514 l-109 -235 398 -397 398 -398 524 -74 523 -75 912 -911
911 -911 471 472 471 473 -458 945 c-252 520 -493 1018 -535 1108 l-78 163
693 693 692 692 58 460 58 459 125 190 c533 811 2180 3329 2184 3338 7 21 205
1619 202 1634 -2 9 -1085 -1067 -2533 -2515 l-2530 -2530 -145 -58 c-80 -32
-161 -64 -180 -72 -26 -10 44 66 281 305 289 291 332 339 506 563 942 1218
1539 2115 1757 2641 111 270 115 444 10 494 -48 22 -191 16 -279 -13 -512
-168 -1451 -777 -2755 -1785 -271 -210 -301 -236 -602 -535 l-317 -315 68 172
67 172 2540 2540 c2397 2397 2537 2539 2504 2538 -19 -1 -393 -46 -830 -101z"/>
<path d="M10635 11610 c-280 -280 -446 -453 -440 -459 6 -5 61 -49 123 -99
262 -208 526 -473 739 -739 52 -65 97 -119 101 -121 4 -1 208 199 454 445
l448 448 -61 75 c-249 305 -628 679 -899 887 -14 10 -86 -58 -465 -437z"/>
<path d="M12565 8749 c-231 -364 -442 -697 -469 -740 l-49 -79 12 -144 c14
-177 14 -579 1 -741 -69 -818 -333 -1568 -791 -2245 -369 -546 -886 -1036
-1446 -1374 -35 -21 -63 -42 -63 -48 0 -13 567 -1077 584 -1095 13 -15 125 48
344 194 509 338 973 763 1357 1243 587 734 988 1600 1174 2535 70 353 100 640
108 1035 11 597 -49 1100 -198 1661 -34 131 -136 459 -142 459 -1 0 -191 -298
-422 -661z"/>
<path d="M1498 7553 c-20 -559 66 -1224 233 -1802 52 -179 168 -513 184 -529
3 -3 972 254 999 266 16 7 -21 47 -238 258 l-256 249 -70 485 -70 484 -37 37
c-21 20 -164 155 -318 299 -154 145 -312 294 -351 333 l-71 69 -5 -149z"/>
<path d="M2894 4090 c-357 -93 -695 -444 -1021 -1060 -52 -97 -1053 -2192
-1053 -2203 0 -8 34 8 1075 505 1150 549 1231 590 1455 731 242 153 473 352
593 512 69 92 139 231 164 325 37 143 17 329 -52 486 -42 95 -147 243 -246
348 -185 195 -373 314 -570 361 -89 21 -256 19 -345 -5z"/>
<path d="M5481 2893 c-6 -21 -66 -249 -135 -507 -69 -258 -124 -472 -122 -474
10 -9 282 -106 414 -147 368 -115 728 -190 1122 -235 231 -26 683 -45 826 -34
l111 9 -354 375 c-195 206 -360 381 -366 387 -8 8 -212 41 -497 82 l-484 70
-80 83 c-118 123 -419 428 -422 428 -2 0 -8 -17 -13 -37z"/>
</g>
</svg>
