<?xml version="1.0" standalone="no"?>
<!DOCTYPE svg PUBLIC "-//W3C//DTD SVG 20010904//EN"
 "http://www.w3.org/TR/2001/REC-SVG-20010904/DTD/svg10.dtd">
<svg version="1.0" xmlns="http://www.w3.org/2000/svg"
 width="2048.000000pt" height="2048.000000pt" viewBox="0 0 2048.000000 2048.000000"
 preserveAspectRatio="xMidYMid meet">
<metadata>
Created by potrace 1.11, written by Peter Selinger 2001-2013
</metadata>
<g transform="translate(0.000000,2048.000000) scale(0.100000,-0.100000)"
fill="#000000" stroke="none">
<path d="M10479 17086 c-2 -2 -53 -7 -114 -10 -107 -7 -126 -8 -229 -21 -27
-3 -72 -8 -100 -10 -28 -3 -69 -7 -91 -11 -22 -3 -51 -7 -65 -9 -124 -19 -175
-27 -240 -40 -41 -8 -86 -17 -100 -19 -51 -9 -177 -37 -235 -52 -33 -9 -67
-17 -75 -19 -111 -22 -580 -170 -695 -220 -97 -41 -192 -78 -202 -78 -7 0 -13
-4 -13 -9 0 -4 -6 -8 -13 -8 -7 0 -37 -11 -65 -25 -29 -14 -54 -25 -57 -25
-18 0 -450 -224 -572 -296 -135 -80 -362 -225 -418 -266 -5 -5 -35 -26 -65
-47 -30 -22 -60 -44 -65 -48 -6 -4 -37 -28 -70 -52 -60 -45 -256 -200 -265
-211 -3 -3 -36 -32 -75 -65 -193 -166 -511 -486 -641 -645 -16 -19 -31 -37
-34 -40 -3 -3 -25 -30 -50 -60 -25 -30 -47 -57 -50 -60 -20 -20 -204 -267
-281 -380 -78 -112 -193 -296 -273 -435 -32 -55 -59 -101 -61 -103 -2 -2 -51
20 -110 48 -104 50 -108 51 -127 33 -50 -43 -1379 -1376 -1376 -1379 2 -2 200
-201 441 -442 l437 -439 -5 -84 c-16 -259 -28 -597 -28 -774 0 -156 9 -410 18
-495 2 -19 7 -69 10 -110 3 -41 8 -86 10 -100 8 -60 15 -108 20 -155 5 -44 29
-194 40 -250 2 -11 13 -69 25 -130 28 -144 25 -132 60 -270 17 -66 33 -130 35
-143 32 -143 216 -670 310 -887 7 -16 18 -46 25 -66 l13 -35 86 22 c47 13 102
28 121 34 40 11 339 92 540 145 74 19 203 54 285 76 83 22 200 53 260 68 61
16 151 41 200 55 50 15 99 29 110 32 11 4 -22 -36 -73 -88 l-93 -94 60 -64
c34 -35 61 -67 61 -70 0 -3 -47 -52 -105 -110 -58 -58 -105 -109 -105 -113 0
-5 37 -46 83 -90 l82 -82 -120 1 c-189 3 -335 -31 -520 -121 -240 -116 -457
-307 -668 -589 -67 -88 -189 -275 -242 -371 -88 -158 -115 -210 -162 -305 -84
-173 -208 -431 -318 -665 -23 -49 -68 -144 -100 -210 -77 -160 -156 -326 -220
-460 -194 -408 -254 -533 -341 -714 -41 -84 -74 -154 -74 -156 0 -2 -39 -83
-86 -181 -48 -99 -103 -215 -124 -259 -21 -44 -64 -136 -97 -205 -33 -69 -70
-147 -83 -175 -12 -27 -24 -53 -27 -57 -5 -10 6 -5 182 81 83 40 177 86 210
101 33 15 132 62 220 105 88 43 201 97 250 120 50 23 149 71 220 105 72 34
171 82 220 105 164 77 278 132 400 190 66 32 161 77 210 100 50 24 149 71 220
105 72 34 166 79 210 100 44 21 143 68 220 105 77 37 165 78 195 92 30 14 154
74 275 134 496 244 807 453 1052 705 276 282 415 597 407 918 l-3 98 75 -74
c41 -40 79 -73 84 -73 5 0 54 43 107 96 54 52 103 98 109 102 7 4 38 -19 74
-54 71 -69 55 -73 168 43 42 43 77 76 79 75 1 -2 -14 -59 -33 -127 -20 -69
-40 -143 -45 -165 -11 -42 -157 -590 -190 -710 -11 -38 -22 -80 -24 -92 -3
-12 -34 -129 -70 -261 -36 -132 -65 -244 -65 -249 0 -13 11 -17 247 -108 109
-42 207 -81 218 -85 110 -49 598 -193 779 -230 23 -4 85 -17 138 -29 53 -11
118 -23 145 -27 26 -3 50 -8 53 -9 3 -2 33 -7 65 -10 33 -4 63 -9 66 -11 6 -3
36 -7 217 -28 20 -3 66 -8 102 -11 36 -4 81 -8 100 -10 240 -24 633 -24 1125
1 72 4 155 8 185 9 l55 2 438 -436 c240 -240 441 -435 445 -434 10 2 1392
1379 1392 1387 0 3 -23 53 -50 111 -47 98 -53 125 -29 125 5 0 34 15 65 32 30
18 63 38 73 43 9 6 61 37 114 70 54 33 105 65 115 70 26 16 106 69 112 75 3 3
25 18 50 35 130 86 431 318 544 420 13 11 54 47 92 80 86 74 418 407 499 500
629 719 1075 1527 1335 2420 40 137 98 370 120 485 11 52 21 104 23 115 3 11
8 40 12 65 4 25 9 52 10 60 2 13 10 62 21 125 1 11 5 43 9 70 3 28 7 64 10 80
5 37 17 138 20 185 1 19 7 87 11 150 17 225 10 798 -12 1015 -7 72 -24 224
-30 267 -3 21 -7 51 -9 68 -2 17 -6 43 -9 58 -3 15 -8 47 -12 72 -3 24 -7 47
-9 50 -2 3 -6 26 -10 50 -9 64 -21 124 -40 205 -9 39 -18 77 -20 85 -43 204
-137 512 -260 855 -64 178 -66 185 -60 225 2 19 7 60 10 90 3 30 7 62 10 70 2
8 6 42 10 75 3 33 7 71 10 85 2 14 7 52 10 85 3 33 8 67 10 75 2 8 7 46 10 85
4 38 8 72 10 75 1 3 6 37 9 75 4 39 9 81 11 95 2 14 16 120 30 235 14 116 27
219 29 230 3 18 18 138 21 175 2 24 17 143 20 160 2 8 6 40 9 70 4 30 9 71 12
90 2 19 7 59 9 89 3 30 7 61 9 70 3 9 8 45 11 81 3 36 8 76 10 90 2 14 6 43 9
65 4 22 8 58 11 80 2 22 11 96 20 165 8 68 15 131 15 139 0 8 -263 -248 -586
-570 -322 -321 -587 -586 -589 -587 -2 -2 -32 31 -67 74 -160 198 -485 538
-663 694 -33 29 -76 67 -95 84 -19 17 -73 62 -120 100 -47 38 -89 73 -94 77
-6 5 241 260 575 594 321 323 586 589 589 592 6 6 -71 -2 -210 -22 -14 -2 -52
-6 -86 -10 -33 -3 -71 -7 -85 -10 -13 -2 -46 -6 -74 -10 -27 -3 -63 -8 -80
-10 -16 -3 -57 -7 -90 -10 -33 -3 -67 -7 -75 -9 -8 -3 -42 -7 -75 -11 -33 -3
-67 -8 -75 -10 -8 -2 -45 -6 -82 -10 -37 -3 -77 -8 -90 -10 -13 -2 -43 -6 -68
-9 -25 -3 -85 -10 -135 -16 -49 -6 -101 -13 -115 -15 -14 -2 -47 -7 -75 -10
-27 -3 -84 -10 -125 -15 -41 -5 -97 -12 -125 -15 -53 -6 -82 -10 -155 -19 -25
-4 -61 -8 -80 -10 -49 -6 -123 -15 -205 -26 -38 -5 -95 -12 -125 -15 -30 -3
-66 -8 -80 -10 -14 -2 -50 -7 -80 -10 -30 -3 -62 -8 -70 -10 -8 -2 -45 -6 -81
-10 -59 -5 -77 -2 -145 23 -76 29 -181 66 -369 131 -163 56 -492 149 -595 167
-14 3 -50 11 -80 19 -83 21 -348 68 -450 80 -30 4 -57 8 -60 10 -3 2 -41 6
-85 10 -44 4 -82 9 -85 10 -3 2 -50 6 -105 10 -55 4 -111 9 -125 12 -29 6
-745 14 -751 9z m259 -2022 c-7 -7 -65 -46 -128 -88 -63 -41 -122 -80 -130
-86 -8 -5 -42 -27 -75 -49 -33 -21 -166 -108 -295 -193 -129 -85 -291 -191
-360 -236 -69 -44 -130 -85 -135 -90 -20 -17 -110 -67 -125 -69 -8 -1 -40 -5
-70 -8 -30 -3 -66 -7 -80 -10 -14 -2 -45 -6 -70 -9 -53 -6 -212 -25 -255 -31
-81 -10 -124 -15 -170 -20 -27 -3 -63 -7 -80 -10 -36 -6 -93 -13 -159 -19
l-49 -5 -645 -647 -644 -647 -71 35 c-40 18 -80 38 -90 44 -17 10 -12 22 63
140 361 569 828 1031 1398 1383 46 28 86 51 88 51 2 0 23 12 45 26 58 36 296
154 419 207 168 72 426 162 550 191 8 2 42 11 75 20 73 18 228 51 310 65 123
21 152 25 255 36 36 4 76 8 90 11 14 2 88 7 165 10 77 4 141 7 142 8 1 1 11 2
23 2 16 0 17 -3 8 -12z m2616 -844 c50 -38 124 -96 164 -129 l73 -59 -66 2
c-171 7 -384 -51 -643 -175 -57 -27 -106 -49 -110 -49 -9 0 472 479 482 480 4
0 49 -31 100 -70z m733 -693 c18 -23 70 -91 117 -152 47 -60 86 -115 86 -120
0 -6 -110 -120 -244 -254 l-244 -244 44 92 c136 282 198 504 188 678 -3 61 6
61 53 0z m984 -2879 c-1 -51 -4 -109 -5 -128 -2 -19 -7 -73 -11 -120 -8 -98
-13 -143 -20 -185 -2 -16 -7 -52 -10 -79 -3 -26 -17 -103 -31 -170 -15 -66
-30 -141 -35 -166 -10 -48 -18 -79 -73 -260 -280 -930 -897 -1757 -1721 -2307
-116 -78 -226 -145 -230 -141 -2 2 -22 41 -44 88 l-40 85 642 642 c353 354
643 644 644 646 3 5 12 60 18 121 6 63 12 111 20 163 3 17 8 58 11 90 2 32 7
69 9 83 3 14 7 50 10 80 3 30 8 66 10 80 2 14 7 50 10 80 23 203 34 260 56
297 13 21 74 114 134 206 61 92 179 272 262 400 84 127 157 239 163 247 62 92
213 326 217 337 11 29 15 2 14 -89z"/>
</g>
</svg>
